<?xml version="1.0" standalone="no"?>
<!DOCTYPE svg PUBLIC "-//W3C//DTD SVG 20010904//EN"
 "http://www.w3.org/TR/2001/REC-SVG-20010904/DTD/svg10.dtd">
<svg version="1.0" xmlns="http://www.w3.org/2000/svg"
 width="500.000000pt" height="500.000000pt" viewBox="0 0 500.000000 500.000000"
 preserveAspectRatio="xMidYMid meet">

<g transform="translate(0.000000,500.000000) scale(0.100000,-0.100000)"
fill="#000000" stroke="none">
<path d="M1620 3673 c0 -5 14 -14 30 -20 20 -8 30 -18 30 -32 0 -21 -1 -21
-40 4 -46 29 -50 30 -50 9 0 -8 13 -20 30 -25 16 -6 32 -20 36 -31 6 -19 6
-19 19 -1 8 11 15 37 17 59 3 39 3 39 -34 42 -21 2 -38 -1 -38 -5z"/>
<path d="M1526 3641 c-7 -10 22 -37 30 -28 9 8 -3 37 -15 37 -5 0 -12 -4 -15
-9z"/>
<path d="M1504 3599 c-8 -14 18 -31 30 -19 9 9 0 30 -14 30 -5 0 -12 -5 -16
-11z"/>
<path d="M1560 3575 c0 -9 9 -15 24 -15 25 0 56 -23 56 -42 0 -6 2 -9 5 -6 4
3 3 17 0 31 -10 37 -85 66 -85 32z"/>
<path d="M1485 3551 c-8 -15 3 -31 21 -31 9 0 14 7 12 17 -4 20 -24 28 -33 14z"/>
<path d="M1540 3520 c0 -12 11 -20 35 -24 45 -9 50 -8 50 5 0 7 -19 17 -42 24
-39 12 -43 11 -43 -5z"/>
<path d="M1472 3478 c2 -12 10 -23 18 -23 22 0 19 39 -3 43 -15 3 -18 -1 -15
-20z"/>
<path d="M1877 3328 c-4 -83 -7 -357 -7 -610 0 -400 2 -458 15 -458 13 0 15
74 15 610 0 587 -10 776 -23 458z"/>
<path d="M2080 3475 c0 -2 71 -150 159 -327 157 -320 229 -457 259 -490 20
-24 26 -15 228 303 l99 157 3 -411 c1 -267 -1 -414 -8 -421 -5 -5 -10 -14 -10
-18 0 -12 198 -10 205 3 4 6 4 280 0 610 l-8 599 -48 0 c-42 0 -51 -4 -65 -27
-10 -16 -43 -68 -74 -118 -31 -49 -89 -142 -128 -205 -142 -229 -163 -261
-172 -255 -8 5 -35 52 -118 205 -22 41 -56 104 -76 140 -20 36 -60 109 -89
162 l-52 98 -52 0 c-29 0 -53 -2 -53 -5z"/>
<path d="M1622 3460 c2 -12 -7 -15 -44 -13 -41 1 -48 -2 -48 -18 0 -15 7 -19
34 -19 19 0 41 -3 49 -6 17 -6 31 46 16 61 -7 7 -9 5 -7 -5z"/>
<path d="M1950 2850 l0 -590 150 0 c143 0 150 1 150 20 0 19 -7 20 -90 20
l-90 0 0 38 c0 99 -21 519 -30 612 -16 149 -49 380 -60 414 -6 16 -10 40 -10
52 0 13 -4 24 -10 24 -7 0 -10 -203 -10 -590z"/>
<path d="M1464 3415 c-8 -21 10 -39 30 -32 22 9 20 24 -4 37 -16 9 -22 8 -26
-5z"/>
<path d="M1620 3366 c0 -17 -6 -18 -50 -13 -48 6 -50 5 -50 -17 0 -21 5 -24
47 -28 62 -5 89 22 63 62 -8 13 -10 12 -10 -4z"/>
<path d="M1462 3338 c2 -12 10 -23 18 -23 22 0 19 39 -3 43 -15 3 -18 -1 -15
-20z"/>
<path d="M1462 3263 c2 -17 9 -28 18 -28 9 0 16 11 18 28 3 22 -1 27 -18 27
-17 0 -21 -5 -18 -27z"/>
<path d="M1629 3248 c4 -28 6 -29 9 -9 2 13 0 27 -5 32 -6 6 -7 -3 -4 -23z"/>
<path d="M1522 3222 c3 -21 8 -24 51 -26 44 -2 47 0 47 24 0 23 -3 25 -51 26
-47 0 -50 -1 -47 -24z"/>
<path d="M1465 3153 c5 -65 4 -63 13 -63 4 0 13 21 20 47 10 37 10 48 0 55
-29 18 -37 8 -33 -39z"/>
<path d="M1630 3158 c1 -7 7 -26 14 -43 11 -23 15 -26 20 -14 8 19 -9 69 -24
69 -5 0 -10 -6 -10 -12z"/>
<path d="M1520 3101 c0 -32 16 -42 61 -39 39 3 44 6 44 28 0 23 -4 25 -52 26
-43 1 -53 -2 -53 -15z"/>
<path d="M1475 3050 c-8 -13 3 -50 16 -50 5 0 4 -8 -2 -19 -13 -20 -6 -51 11
-51 5 0 11 20 12 45 1 25 2 53 2 62 1 20 -29 30 -39 13z"/>
<path d="M1645 3033 c5 -10 13 -33 19 -50 12 -37 36 -44 36 -12 0 23 -18 60
-34 71 -19 13 -28 9 -21 -9z"/>
<path d="M1578 2983 c-50 -4 -58 -15 -39 -51 13 -25 111 -18 111 8 0 24 -10
51 -19 48 -3 -1 -27 -3 -53 -5z"/>
<path d="M1504 2897 c-2 -7 -3 -31 0 -53 2 -21 5 -45 5 -51 1 -7 4 -13 9 -13
11 0 13 118 2 125 -6 4 -13 0 -16 -8z"/>
<path d="M1660 2906 c0 -19 44 -96 53 -93 20 6 20 57 1 78 -14 16 -54 27 -54
15z"/>
<path d="M1550 2815 c0 -5 3 -20 6 -32 6 -21 11 -23 58 -19 48 4 51 5 54 34
l3 31 -60 -2 c-34 -1 -61 -6 -61 -12z"/>
<path d="M1690 2770 c-14 -26 6 -70 38 -81 21 -8 22 -6 22 35 0 36 -4 45 -25
54 -21 10 -26 9 -35 -8z"/>
<path d="M1517 2743 c-10 -9 -8 -55 2 -72 11 -17 17 -6 26 42 6 29 4 37 -7 37
-8 0 -18 -3 -21 -7z"/>
<path d="M1705 2651 c5 -22 2 -39 -8 -55 -12 -18 -13 -32 -6 -67 6 -24 8 -51
6 -61 -3 -9 7 -28 22 -42 l27 -26 13 51 c13 48 12 52 -10 76 l-24 25 23 -7
c22 -6 23 -5 20 46 -3 48 -6 55 -37 73 l-33 19 7 -32z"/>
<path d="M1562 2636 c2 -19 8 -30 16 -28 7 1 30 -2 51 -7 43 -9 51 -2 51 42 0
20 -5 22 -61 23 l-60 0 3 -30z"/>
<path d="M1517 2603 c-10 -9 -8 -61 2 -67 11 -7 35 49 26 63 -7 12 -19 14 -28
4z"/>
<path d="M1544 2496 c-8 -32 1 -46 31 -46 13 0 35 -4 49 -10 27 -10 30 -8 39
31 6 25 4 27 -36 32 -23 2 -50 8 -59 12 -13 5 -19 0 -24 -19z"/>
<path d="M1490 2440 c-20 -20 -28 -70 -11 -70 9 0 34 34 44 62 9 26 -10 31
-33 8z"/>
<path d="M1666 2415 c-16 -42 -1 -135 22 -135 10 0 42 65 42 83 0 8 -13 26
-29 41 -24 23 -29 25 -35 11z"/>
<path d="M1526 2368 c-9 -5 -16 -18 -16 -28 0 -16 7 -20 36 -20 19 0 44 -4 54
-10 27 -14 50 15 28 36 -20 20 -81 34 -102 22z"/>
<path d="M1456 2291 c-8 -13 5 -71 16 -71 9 0 13 8 22 53 5 22 3 27 -13 27
-11 0 -22 -4 -25 -9z"/>
<path d="M1622 2253 c4 -44 20 -52 38 -19 11 21 11 28 0 41 -23 28 -41 18 -38
-22z"/>
<path d="M1517 2273 c-14 -14 -6 -33 14 -33 31 0 59 -19 59 -40 0 -22 16 -36
22 -19 9 28 -17 79 -46 89 -34 12 -40 12 -49 3z"/>
<path d="M2967 2225 c-10 -14 -24 -25 -31 -25 -8 0 -19 -7 -26 -15 -12 -14
-15 -14 -31 1 -22 20 -57 10 -71 -21 -8 -19 -6 -29 11 -53 11 -17 21 -37 21
-46 0 -21 -26 -20 -40 2 -8 12 -13 13 -16 5 -3 -7 -13 -13 -21 -13 -13 0 -15
11 -11 65 l4 65 -33 6 c-25 5 -39 2 -53 -11 -23 -21 -18 -34 5 -15 25 21 28 5
10 -49 -17 -54 -37 -76 -58 -68 -11 4 -12 18 -5 69 11 85 16 98 38 98 10 0 22
5 25 10 11 18 -32 11 -57 -10 -14 -10 -31 -33 -38 -50 -16 -39 -50 -42 -50 -4
0 23 -3 25 -37 22 -20 -2 -38 -8 -40 -15 -3 -7 3 -9 17 -6 19 5 20 3 14 -38
-4 -24 -11 -54 -15 -67 -12 -32 -12 -34 14 -30 17 2 22 9 21 33 l-2 30 11 -27
c6 -16 13 -28 16 -28 3 0 16 15 29 33 23 33 29 26 12 -17 l-9 -26 57 3 c39 1
56 6 55 14 -2 7 6 17 16 23 16 8 20 5 25 -15 7 -26 25 -32 43 -14 8 8 13 8 17
0 12 -19 64 -13 80 10 16 23 13 40 -17 82 -15 22 -17 31 -8 40 9 9 15 8 22 -5
8 -14 15 -15 35 -8 37 14 59 13 47 -2 -5 -7 -16 -29 -23 -48 -7 -19 -23 -46
-34 -58 l-21 -24 30 4 c17 1 30 8 30 15 0 25 17 26 35 3 17 -22 22 -23 40 -12
11 7 20 9 20 5 0 -5 22 -9 50 -10 41 -2 51 1 60 17 10 19 9 20 -14 14 -13 -3
-31 -2 -40 3 -12 7 -7 18 30 62 24 29 44 48 44 42 0 -6 6 -8 14 -5 11 4 12 -5
5 -45 -4 -27 -13 -59 -19 -70 -10 -20 -8 -21 33 -21 27 0 49 6 57 15 11 13 8
14 -19 9 -27 -6 -31 -4 -31 15 0 14 9 25 25 31 36 14 31 36 -6 32 -4 -1 -5 7
-2 17 3 11 18 22 36 26 l32 7 -30 9 c-16 5 -41 6 -55 3 -28 -7 -82 -6 -89 1
-2 3 4 15 15 27 16 17 16 20 3 15 -9 -3 -21 -1 -27 5 -6 6 -12 6 -16 0 -3 -6
-2 -13 4 -17 15 -10 12 -38 -4 -32 -13 5 -36 -10 -36 -23 0 -3 12 -6 27 -5 38
0 37 -15 -6 -64 -28 -33 -43 -43 -56 -37 -15 5 -17 15 -12 66 4 48 2 60 -12
65 -15 6 -14 7 2 16 17 10 24 39 10 39 -5 0 -16 -12 -26 -25z m-250 -107 c-3
-8 -6 -5 -6 6 -1 11 2 17 5 13 3 -3 4 -12 1 -19z"/>
<path d="M2275 2226 c-17 -7 -44 -29 -60 -47 -23 -27 -27 -30 -23 -12 7 26
-12 36 -46 23 -15 -5 -27 -5 -34 2 -17 17 -58 1 -92 -35 l-30 -32 0 39 c0 32
-2 36 -14 27 -8 -6 -17 -33 -21 -59 -8 -56 -21 -82 -40 -82 -22 0 -25 14 -15
76 10 63 3 78 -34 65 -26 -10 -33 -31 -8 -24 18 4 19 1 11 -47 -4 -28 -5 -58
-2 -66 8 -22 35 -33 60 -23 25 9 65 67 57 81 -3 4 -1 8 4 8 5 0 9 -14 10 -31
0 -17 6 -37 13 -45 19 -23 69 -13 88 16 l15 25 -21 -19 c-43 -36 -73 0 -54 64
13 43 47 60 66 33 9 -11 14 -13 19 -5 4 7 14 12 22 12 11 0 13 -10 8 -52 -4
-29 -10 -61 -16 -70 -7 -15 -4 -18 16 -18 28 0 43 15 24 23 -10 4 -10 6 0 6 7
1 10 7 7 14 -4 6 3 0 15 -15 24 -31 45 -36 54 -12 9 22 8 24 -9 18 -15 -6 -35
31 -32 58 4 25 59 88 83 94 13 3 24 10 24 15 0 12 -9 11 -45 -5z"/>
<path d="M1497 2203 c-16 -15 -5 -33 20 -33 14 0 35 -7 45 -17 17 -15 18 -15
18 6 0 16 -10 26 -35 37 -40 16 -39 16 -48 7z"/>
<path d="M1772 2185 c-11 -13 -22 -47 -26 -75 -4 -30 -13 -53 -21 -57 -8 -3
-15 -9 -15 -14 0 -10 80 -12 104 -3 28 11 17 24 -15 17 l-32 -6 8 58 c9 75 13
85 35 85 11 0 22 5 25 10 14 22 -45 9 -63 -15z"/>
<path d="M2277 2186 c-21 -21 -22 -30 -2 -23 8 4 17 1 21 -4 11 -18 6 -100 -7
-115 -9 -11 -6 -14 19 -14 29 0 30 2 26 33 -4 35 23 102 43 102 7 0 17 5 23
11 8 8 7 13 -5 18 -10 4 -24 -3 -38 -18 l-20 -23 -22 25 c-20 23 -22 23 -38 8z"/>
<path d="M1500 2132 c0 -20 36 -72 49 -72 4 0 7 19 7 43 -1 38 -3 42 -28 45
-22 3 -28 -1 -28 -16z"/>
</g>
</svg>
